<svg width="485" height="167" viewBox="0 0 485 167" fill="none" xmlns="http://www.w3.org/2000/svg">
<path d="M336.358 -88.8174V76.3867L336.367 76.4492L337.358 76.3232C336.436 76.4402 336.372 76.4489 336.367 76.4502V76.4531C336.367 76.4551 336.368 76.4578 336.368 76.4609C336.369 76.4673 336.371 76.4762 336.372 76.4873C336.375 76.5097 336.38 76.5417 336.386 76.583C336.398 76.6661 336.415 76.7876 336.44 76.9434C336.491 77.2549 336.572 77.7071 336.688 78.2793C336.922 79.4238 337.305 81.0515 337.905 83.001C339.104 86.8973 341.175 92.0981 344.661 97.3057C351.661 107.761 364.336 118.176 386.879 118.176C408 118.176 420.582 107.741 427.847 97.3213C431.47 92.1242 433.771 86.933 435.167 83.0439C435.865 81.0981 436.339 79.4737 436.639 78.332C436.743 77.9357 436.824 77.5969 436.889 77.3232H483.433C483.323 77.9897 483.158 78.9363 482.923 80.124C482.425 82.6408 481.618 86.2394 480.385 90.5508C477.916 99.1776 473.743 110.638 466.927 122C453.311 144.695 429.182 166.969 386.912 165.54C344.087 164.092 319.641 141.779 305.861 119.804C298.963 108.803 294.742 97.8858 292.244 89.7158C290.996 85.6326 290.18 82.24 289.677 79.8721C289.425 78.6882 289.251 77.7608 289.141 77.1318C289.086 76.8177 289.047 76.5779 289.021 76.418C289.009 76.342 289.001 76.2835 288.995 76.2441V-88.8271L288.992 -88.8662L287.995 -88.7881C288.992 -88.8663 288.992 -88.8673 288.992 -88.8682V-88.8711C288.992 -88.873 288.991 -88.8758 288.991 -88.8789C288.991 -88.8855 288.99 -88.8946 288.989 -88.9062C288.987 -88.9299 288.984 -88.9639 288.979 -89.0078C288.971 -89.0957 288.958 -89.2236 288.939 -89.3887C288.902 -89.7188 288.841 -90.1985 288.748 -90.8057C288.562 -92.0198 288.245 -93.747 287.72 -95.8164C286.671 -99.9521 284.786 -105.476 281.444 -111.008C274.732 -122.119 262.168 -133.194 238.959 -133.194C217.096 -133.194 205.111 -122.091 198.643 -110.995C195.42 -105.467 193.567 -99.9477 192.519 -95.8164C191.994 -93.7491 191.67 -92.0239 191.477 -90.8115C191.38 -90.2052 191.316 -89.7258 191.275 -89.3965C191.255 -89.2322 191.242 -89.105 191.232 -89.0176C191.228 -88.9738 191.224 -88.9395 191.222 -88.916C191.221 -88.9044 191.219 -88.8952 191.219 -88.8887C191.218 -88.8855 191.219 -88.8828 191.219 -88.8809L191.218 -88.8789C191.218 -88.8781 191.218 -88.8767 192.214 -88.7881L191.218 -88.877L191.214 -88.833V165.539H144.31V-88.8721L144.296 -88.9551L143.31 -88.7881C144.296 -88.9549 144.296 -88.9561 144.296 -88.957L144.295 -88.96C144.295 -88.962 144.294 -88.9646 144.294 -88.9678C144.293 -88.9749 144.29 -88.9854 144.288 -88.998C144.284 -89.0233 144.277 -89.0597 144.269 -89.1064C144.251 -89.2005 144.224 -89.3373 144.188 -89.5137C144.114 -89.8665 144.002 -90.3781 143.84 -91.0234C143.516 -92.314 142.997 -94.1421 142.212 -96.3086C140.643 -100.638 138.002 -106.341 133.717 -111.812C125.104 -122.81 109.923 -132.759 83.833 -128.928C65.9458 -126.301 56.2842 -115.542 51.127 -105.486C48.5534 -100.468 47.0958 -95.6204 46.2812 -92.0293C45.8736 -90.2323 45.6265 -88.7452 45.4805 -87.7041C45.4075 -87.1836 45.3597 -86.7739 45.3301 -86.4922C45.3153 -86.3517 45.3055 -86.2429 45.2988 -86.168C45.2955 -86.1306 45.2927 -86.1013 45.291 -86.0811C45.2902 -86.0709 45.2895 -86.0623 45.2891 -86.0566C45.2889 -86.054 45.2882 -86.0514 45.2881 -86.0498V-86.0479C45.2885 -86.0471 45.3106 -86.0446 46.2852 -85.9727L45.2881 -86.0469L45.2852 -86.0098V164.476H1.35254V-86.0527L1.33984 -86.1318V-86.1338C1.33943 -86.1364 1.33887 -86.141 1.33789 -86.1475C1.33591 -86.1605 1.33221 -86.1816 1.32812 -86.21C1.31995 -86.2668 1.30867 -86.3542 1.29395 -86.4707C1.26441 -86.7045 1.22386 -87.0566 1.18262 -87.5176C1.10014 -88.4397 1.01317 -89.7985 1.00098 -91.5254C0.976579 -94.98 1.24954 -99.9039 2.44043 -105.75C4.82081 -117.435 10.8724 -132.817 25.5918 -147.536C40.7371 -162.681 55.3782 -170.235 66.2051 -174.004C71.6205 -175.889 76.0859 -176.828 79.1865 -177.297C80.7367 -177.531 81.9457 -177.648 82.7617 -177.706C83.1697 -177.735 83.4796 -177.749 83.6846 -177.756C83.7868 -177.759 83.8629 -177.761 83.9121 -177.762C83.9367 -177.762 83.9548 -177.763 83.9658 -177.763H84.0342L84.0908 -177.77H84.0928C84.095 -177.77 84.0993 -177.77 84.1045 -177.771C84.1148 -177.772 84.1308 -177.774 84.1523 -177.776C84.1959 -177.781 84.2623 -177.787 84.3506 -177.796C84.5275 -177.813 84.793 -177.836 85.1406 -177.863C85.8362 -177.917 86.8618 -177.984 88.1709 -178.033C90.7897 -178.131 94.542 -178.157 99.0576 -177.872C108.094 -177.301 120.161 -175.482 132.323 -170.504C140.379 -167.207 149.587 -160.807 156.826 -155.183C160.435 -152.378 163.536 -149.782 165.733 -147.887C166.832 -146.939 167.705 -146.168 168.302 -145.634C168.6 -145.367 168.83 -145.159 168.984 -145.019C169.062 -144.948 169.12 -144.895 169.159 -144.859C169.179 -144.842 169.193 -144.828 169.203 -144.819C169.208 -144.815 169.212 -144.812 169.214 -144.81C169.215 -144.809 169.216 -144.808 169.217 -144.808V-144.807L170.081 -144.01L170.729 -144.99C170.73 -144.991 170.73 -144.992 170.73 -144.993C170.732 -144.996 170.735 -145 170.739 -145.006C170.748 -145.018 170.761 -145.039 170.779 -145.065C170.816 -145.119 170.873 -145.2 170.95 -145.309C171.104 -145.525 171.339 -145.847 171.656 -146.26C172.292 -147.086 173.259 -148.278 174.572 -149.718C177.2 -152.598 181.213 -156.474 186.735 -160.429C197.775 -168.333 214.86 -176.561 239.009 -177.765C260.17 -178.819 279.691 -170.618 293.972 -162.095C301.103 -157.838 306.905 -153.515 310.923 -150.257C312.931 -148.628 314.492 -147.267 315.549 -146.314C316.077 -145.838 316.48 -145.464 316.749 -145.211C316.883 -145.084 316.985 -144.987 317.052 -144.923C317.085 -144.891 317.11 -144.866 317.126 -144.851C317.134 -144.843 317.14 -144.837 317.144 -144.833C317.145 -144.831 317.148 -144.83 317.148 -144.829V-144.828L317.975 -144.017L318.657 -144.952L318.659 -144.955C318.661 -144.958 318.665 -144.963 318.67 -144.97C318.68 -144.983 318.696 -145.004 318.717 -145.032C318.759 -145.088 318.823 -145.173 318.91 -145.285C319.084 -145.51 319.349 -145.843 319.703 -146.27C320.411 -147.123 321.478 -148.35 322.903 -149.83C325.754 -152.79 330.032 -156.76 335.732 -160.776C347.131 -168.809 364.204 -177.027 386.911 -177.764C426.48 -179.048 450.622 -156.852 464.926 -134.216C472.081 -122.893 476.756 -111.48 479.644 -102.894C481.086 -98.602 482.081 -95.0205 482.714 -92.5156C483.004 -91.3689 483.217 -90.4479 483.363 -89.7881H436.929C436.875 -90.0788 436.806 -90.4388 436.717 -90.8604C436.46 -92.0722 436.046 -93.7969 435.413 -95.8633C434.148 -99.9928 432.004 -105.507 428.485 -111.028C421.428 -122.103 408.838 -133.194 386.879 -133.194C362.975 -133.194 350.283 -122.13 343.619 -111.005C340.303 -105.468 338.492 -99.9404 337.508 -95.8018C337.016 -93.7308 336.73 -92.0023 336.566 -90.7871C336.485 -90.1794 336.433 -89.6987 336.402 -89.3682C336.387 -89.2031 336.377 -89.0753 336.37 -88.9873C336.367 -88.9435 336.365 -88.9095 336.363 -88.8857C336.363 -88.8739 336.362 -88.8641 336.361 -88.8574C336.361 -88.8542 336.36 -88.8516 336.36 -88.8496C336.36 -88.8486 336.36 -88.8472 336.36 -88.8467C336.361 -88.8458 336.39 -88.8434 337.358 -88.7881L336.36 -88.8457L336.358 -88.8174Z" stroke="#BAA48D" stroke-width="2"/>
</svg>
