<svg width="256" height="347" viewBox="0 0 256 347" fill="none" xmlns="http://www.w3.org/2000/svg">
<path opacity="0.1" d="M336.983 90.8582V256.062L336.992 256.125L337.983 255.999C337.061 256.116 336.997 256.124 336.992 256.126V256.129C336.992 256.131 336.993 256.133 336.993 256.136C336.994 256.143 336.996 256.152 336.997 256.163C337 256.185 337.005 256.217 337.011 256.259C337.023 256.342 337.04 256.463 337.065 256.619C337.116 256.93 337.197 257.383 337.313 257.955C337.547 259.099 337.93 260.727 338.53 262.677C339.729 266.573 341.8 271.774 345.286 276.981C352.286 287.436 364.961 297.851 387.504 297.851C408.625 297.851 421.207 287.417 428.472 276.997C432.095 271.8 434.396 266.608 435.792 262.719C436.49 260.774 436.964 259.149 437.264 258.008C437.368 257.611 437.449 257.272 437.514 256.999H484.058C483.948 257.665 483.783 258.612 483.548 259.8C483.05 262.316 482.243 265.915 481.01 270.226C478.541 278.853 474.368 290.314 467.552 301.676C453.936 324.371 429.807 346.645 387.537 345.216C344.712 343.768 320.266 321.454 306.486 299.479C299.588 288.479 295.367 277.561 292.869 269.391C291.621 265.308 290.805 261.916 290.302 259.548C290.05 258.364 289.876 257.436 289.766 256.807C289.711 256.493 289.672 256.253 289.646 256.094C289.634 256.018 289.626 255.959 289.62 255.92V90.8484L289.617 90.8093L288.62 90.8875C289.617 90.8092 289.617 90.8082 289.617 90.8074V90.8044C289.617 90.8025 289.616 90.7997 289.616 90.7966C289.616 90.79 289.615 90.7809 289.614 90.7693C289.612 90.7456 289.609 90.7116 289.604 90.6677C289.596 90.5798 289.583 90.4519 289.564 90.2869C289.527 89.9568 289.466 89.4771 289.373 88.8699C289.187 87.6558 288.87 85.9286 288.345 83.8591C287.296 79.7234 285.411 74.1999 282.069 68.6677C275.357 57.5566 262.793 46.4812 239.584 46.4812C217.721 46.4812 205.736 57.5844 199.268 68.6804C196.045 74.2086 194.192 79.7278 193.144 83.8591C192.619 85.9265 192.295 87.6516 192.102 88.864C192.005 89.4704 191.941 89.9497 191.9 90.2791C191.88 90.4433 191.867 90.5705 191.857 90.658C191.853 90.7017 191.849 90.736 191.847 90.7595C191.846 90.7711 191.844 90.7804 191.844 90.7869C191.843 90.79 191.844 90.7928 191.844 90.7947L191.843 90.7966C191.843 90.7974 191.843 90.7988 192.839 90.8875L191.843 90.7986L191.839 90.8425V345.215H144.935V90.8035L144.921 90.7205L143.935 90.8875C144.921 90.7206 144.921 90.7194 144.921 90.7185L144.92 90.7156C144.92 90.7136 144.919 90.7109 144.919 90.7078C144.918 90.7007 144.915 90.6902 144.913 90.6775C144.909 90.6522 144.902 90.6159 144.894 90.5691C144.876 90.475 144.849 90.3383 144.812 90.1619C144.739 89.809 144.627 89.2975 144.465 88.6521C144.141 87.3616 143.622 85.5334 142.837 83.3669C141.268 79.0379 138.627 73.3344 134.342 67.863C125.729 56.866 110.548 46.9166 84.458 50.7478C66.5708 53.3745 56.9092 64.1335 51.752 74.1892C49.1784 79.2072 47.7208 84.0552 46.9062 87.6462C46.4986 89.4433 46.2515 90.9303 46.1055 91.9714C46.0325 92.4919 45.9847 92.9016 45.9551 93.1833C45.9403 93.3239 45.9305 93.4327 45.9238 93.5076C45.9205 93.5449 45.9177 93.5743 45.916 93.5945C45.9152 93.6046 45.9145 93.6132 45.9141 93.6189C45.9139 93.6215 45.9132 93.6241 45.9131 93.6257V93.6277C45.9135 93.6284 45.9356 93.6309 46.9102 93.7029L45.9131 93.6287L45.9102 93.6658V344.151H1.97754V93.6228L1.96484 93.5437V93.5417C1.96443 93.5391 1.96387 93.5345 1.96289 93.5281C1.96091 93.515 1.95721 93.494 1.95312 93.4656C1.94495 93.4087 1.93367 93.3214 1.91895 93.2048C1.88941 92.971 1.84886 92.619 1.80762 92.158C1.72514 91.2359 1.63817 89.8771 1.62598 88.1501C1.60158 84.6955 1.87454 79.7716 3.06543 73.9255C5.44581 62.2404 11.4974 46.8588 26.2168 32.1394C41.3621 16.9941 56.0032 9.44086 66.8301 5.67163C72.2455 3.78634 76.7109 2.84722 79.8115 2.37866C81.3617 2.14441 82.5707 2.02733 83.3867 1.96948C83.7947 1.94057 84.1046 1.92672 84.3096 1.91968C84.4118 1.91617 84.4879 1.91465 84.5371 1.91382C84.5617 1.9134 84.5798 1.91293 84.5908 1.91284H84.6592L84.7158 1.90601H84.7178C84.72 1.90576 84.7243 1.90559 84.7295 1.90503C84.7398 1.90391 84.7558 1.90143 84.7773 1.89917C84.8209 1.89461 84.8873 1.88811 84.9756 1.87964C85.1525 1.86267 85.418 1.83926 85.7656 1.81226C86.4612 1.75824 87.4868 1.69113 88.7959 1.64233C91.4147 1.54472 95.167 1.51815 99.6826 1.80347C108.719 2.37446 120.786 4.19358 132.948 9.17163C141.004 12.4688 150.212 18.8684 157.451 24.4929C161.06 27.2972 164.161 29.8939 166.358 31.7888C167.457 32.7361 168.33 33.5077 168.927 34.0417C169.225 34.3087 169.455 34.5165 169.609 34.657C169.687 34.7271 169.745 34.7805 169.784 34.8162C169.804 34.834 169.818 34.8473 169.828 34.8562C169.833 34.8606 169.837 34.8638 169.839 34.866C169.84 34.867 169.841 34.8674 169.842 34.8679V34.8689L170.706 35.6658L171.354 34.6853C171.355 34.6849 171.355 34.6836 171.355 34.6824C171.357 34.6798 171.36 34.6757 171.364 34.6697C171.373 34.6572 171.386 34.6369 171.404 34.6101C171.441 34.5565 171.498 34.4751 171.575 34.3669C171.729 34.1506 171.964 33.8287 172.281 33.4158C172.917 32.5895 173.884 31.398 175.197 29.9578C177.825 27.0771 181.838 23.2012 187.36 19.2468C198.4 11.3421 215.485 3.11405 239.634 1.91089C260.795 0.856621 280.316 9.05751 294.597 17.5808C301.728 21.8373 307.53 26.1605 311.548 29.4187C313.556 31.0473 315.117 32.4089 316.174 33.3611C316.702 33.8372 317.105 34.211 317.374 34.4646C317.508 34.5913 317.61 34.6882 317.677 34.7527C317.71 34.7848 317.735 34.8092 317.751 34.825C317.759 34.8327 317.765 34.8388 317.769 34.8425C317.77 34.8444 317.773 34.8456 317.773 34.8464V34.8474L318.6 35.6589L319.282 34.7234L319.284 34.7205C319.286 34.7176 319.29 34.7124 319.295 34.7058C319.305 34.6925 319.321 34.6714 319.342 34.6433C319.384 34.5873 319.448 34.5022 319.535 34.3904C319.709 34.1658 319.974 33.8326 320.328 33.406C321.036 32.5527 322.103 31.3254 323.528 29.8455C326.379 26.8852 330.657 22.916 336.357 18.8992C347.756 10.8667 364.829 2.64878 387.536 1.91187C427.105 0.627831 451.247 22.8233 465.551 45.4597C472.706 56.7825 477.381 68.1951 480.269 76.782C481.711 81.0736 482.706 84.6551 483.339 87.1599C483.629 88.3066 483.842 89.2276 483.988 89.8875H437.554C437.5 89.5967 437.431 89.2368 437.342 88.8152C437.085 87.6034 436.671 85.8787 436.038 83.8123C434.773 79.6828 432.629 74.1689 429.11 68.6472C422.053 57.5727 409.463 46.4813 387.504 46.4812C363.6 46.4812 350.908 57.5453 344.244 68.6707C340.928 74.2071 339.117 79.7351 338.133 83.8738C337.641 85.9448 337.355 87.6733 337.191 88.8884C337.11 89.4962 337.058 89.9768 337.027 90.3074C337.012 90.4724 337.002 90.6002 336.995 90.6882C336.992 90.732 336.99 90.7661 336.988 90.7898C336.988 90.8017 336.987 90.8114 336.986 90.8181C336.986 90.8213 336.985 90.8239 336.985 90.8259C336.985 90.8269 336.985 90.8284 336.985 90.8289C336.986 90.8297 337.015 90.8322 337.983 90.8875L336.985 90.8298L336.983 90.8582Z" stroke="#BAA48D" stroke-width="2"/>
</svg>
