<svg width="475" height="135" viewBox="0 0 475 135" fill="none" xmlns="http://www.w3.org/2000/svg">
<path d="M329.21 88.9805V250.685L329.218 250.747L330.21 250.621L329.218 250.749V250.751C329.218 250.753 329.218 250.756 329.219 250.759C329.22 250.765 329.221 250.773 329.223 250.784C329.226 250.806 329.229 250.838 329.235 250.879C329.247 250.96 329.265 251.079 329.29 251.231C329.34 251.537 329.418 251.98 329.532 252.54C329.761 253.661 330.137 255.254 330.725 257.163C331.899 260.978 333.925 266.072 337.339 271.171C344.193 281.409 356.606 291.608 378.68 291.608C399.362 291.608 411.683 281.39 418.797 271.187C422.345 266.098 424.598 261.015 425.965 257.207C426.649 255.302 427.113 253.712 427.406 252.594C427.506 252.213 427.585 251.886 427.647 251.621H473.162C473.055 252.272 472.895 253.19 472.668 254.338C472.181 256.801 471.392 260.322 470.185 264.541C467.769 272.984 463.684 284.2 457.014 295.319C443.689 317.529 420.078 339.324 378.714 337.926C336.805 336.509 312.882 314.674 299.397 293.169C292.647 282.404 288.515 271.72 286.071 263.725C284.85 259.729 284.051 256.408 283.559 254.091C283.312 252.932 283.142 252.025 283.034 251.409C282.98 251.101 282.943 250.866 282.918 250.71C282.907 250.64 282.898 250.585 282.893 250.547V88.9697L282.89 88.9307L281.893 89.0088C282.818 88.9362 282.884 88.9298 282.889 88.9287V88.9189C282.888 88.9125 282.887 88.9031 282.886 88.8916C282.884 88.8684 282.881 88.8349 282.877 88.792C282.869 88.7059 282.856 88.5805 282.838 88.4189C282.801 88.0956 282.742 87.6259 282.65 87.0312C282.468 85.8423 282.157 84.1506 281.643 82.124C280.615 78.0746 278.77 72.6661 275.498 67.249C268.925 56.3678 256.62 45.5225 233.895 45.5225C212.487 45.5226 200.75 56.3958 194.415 67.2617C191.259 72.6748 189.444 78.079 188.418 82.124C187.904 84.1485 187.587 85.8381 187.397 87.0254C187.303 87.619 187.241 88.0876 187.201 88.4102C187.182 88.5714 187.167 88.6965 187.158 88.7822C187.154 88.8251 187.151 88.8588 187.148 88.8818C187.147 88.8931 187.146 88.9019 187.146 88.9082C187.145 88.9113 187.146 88.9141 187.146 88.916L187.145 88.9189C187.145 88.9198 187.177 88.923 188.141 89.0088L187.145 88.9199L187.141 88.9639V337.925H141.273V88.9248L141.259 88.8418L140.273 89.0088C141.259 88.842 141.259 88.8407 141.259 88.8398L141.258 88.8379C141.257 88.8358 141.257 88.8326 141.257 88.8291C141.256 88.8221 141.254 88.8122 141.252 88.7998C141.248 88.775 141.241 88.7393 141.232 88.6934C141.215 88.6011 141.189 88.4667 141.153 88.2939C141.082 87.9483 140.971 87.4473 140.812 86.8154C140.496 85.5516 139.987 83.7619 139.218 81.6406C137.681 77.4019 135.096 71.8175 130.9 66.46C122.466 55.6902 107.599 45.9481 82.0537 49.6992C64.5371 52.2715 55.0747 62.8083 50.0244 72.6553C47.5045 77.5688 46.0778 82.3159 45.2803 85.832C44.8812 87.5914 44.6391 89.0469 44.4961 90.0664C44.4246 90.5763 44.3776 90.9778 44.3486 91.2539C44.3341 91.3919 44.3239 91.4988 44.3174 91.5723C44.3141 91.6089 44.3112 91.6374 44.3096 91.6572C44.3088 91.6671 44.309 91.6751 44.3086 91.6807C44.3084 91.6834 44.3077 91.6858 44.3076 91.6875V91.6895C44.3099 91.6903 44.3566 91.6947 45.3047 91.7646L44.3076 91.6904L44.3047 91.7275V336.885H1.3457V91.6846L1.33301 91.6055L1.33203 91.6035C1.33163 91.601 1.33098 91.5967 1.33008 91.5908C1.32815 91.5781 1.32528 91.5571 1.32129 91.5293C1.3133 91.4737 1.30151 91.3884 1.28711 91.2744C1.25823 91.0458 1.21904 90.7019 1.17871 90.251C1.09802 89.3489 1.01291 88.0189 1.00098 86.3291C0.97713 82.949 1.24396 78.1313 2.40918 72.4111C4.73838 60.9771 10.6605 45.9256 25.0645 31.5215C39.8865 16.6995 54.2149 9.30751 64.8096 5.61914C70.1087 3.77434 74.478 2.85493 77.5117 2.39648C79.0281 2.16735 80.2106 2.05366 81.0088 1.99707C81.4076 1.9688 81.7108 1.95416 81.9111 1.94727C82.0113 1.94382 82.0867 1.94222 82.1348 1.94141C82.1585 1.941 82.1758 1.9415 82.1865 1.94141C82.1915 1.94136 82.1952 1.94044 82.1973 1.94043H82.2549L82.3105 1.93457C82.3109 1.93453 82.3124 1.93469 82.3135 1.93457C82.3157 1.93433 82.3193 1.93315 82.3242 1.93262C82.3343 1.93152 82.3499 1.92995 82.3711 1.92773C82.4137 1.92327 82.4789 1.91651 82.5654 1.9082C82.7385 1.8916 82.9979 1.86821 83.3379 1.8418C84.0185 1.78894 85.0225 1.72451 86.3037 1.67676C88.8664 1.58124 92.538 1.55478 96.957 1.83398C105.801 2.39277 117.609 4.17261 129.511 9.04395C137.393 12.2701 146.405 18.5328 153.49 24.0381C157.022 26.7825 160.056 29.3241 162.207 31.1787C163.282 32.1058 164.136 32.8611 164.721 33.3838C165.013 33.6451 165.238 33.8479 165.39 33.9854C165.465 34.054 165.522 34.1067 165.561 34.1416C165.58 34.159 165.594 34.172 165.604 34.1807C165.608 34.1848 165.611 34.1884 165.613 34.1904C165.614 34.1914 165.616 34.1919 165.616 34.1924V34.1934L166.481 34.9902L167.129 34.0098C167.129 34.0094 167.129 34.008 167.13 34.0068C167.132 34.0044 167.135 34.0002 167.139 33.9941C167.147 33.982 167.16 33.9626 167.178 33.9365C167.214 33.8842 167.269 33.804 167.345 33.6982C167.495 33.4867 167.724 33.1716 168.035 32.7676C168.657 31.9592 169.603 30.794 170.889 29.3848C173.46 26.5661 177.387 22.7729 182.791 18.9033C193.593 11.1683 210.312 3.11694 233.944 1.93945C254.652 0.907786 273.755 8.93177 287.731 17.2734C294.711 21.4391 300.389 25.6707 304.32 28.8594C306.286 30.4533 307.813 31.786 308.848 32.7178C309.365 33.1837 309.758 33.5498 310.021 33.7979C310.153 33.9217 310.252 34.0161 310.317 34.0791C310.35 34.1105 310.375 34.1339 310.391 34.1494L310.413 34.1719L311.239 34.9824L311.922 34.0469C311.922 34.0464 311.923 34.045 311.924 34.0439C311.926 34.0411 311.929 34.0364 311.934 34.0303C311.943 34.0173 311.959 33.9971 311.979 33.9697C312.021 33.9149 312.084 33.8313 312.169 33.7217C312.339 33.5021 312.598 33.176 312.944 32.7588C313.637 31.924 314.681 30.7234 316.075 29.2754C318.864 26.3787 323.052 22.4944 328.63 18.5635C339.784 10.7031 356.491 2.66163 378.712 1.94043C417.432 0.683849 441.056 22.4019 455.055 44.5547C462.057 55.6359 466.633 66.805 469.459 75.209C470.871 79.4091 471.844 82.9139 472.464 85.3652C472.744 86.4726 472.95 87.365 473.094 88.0088H427.688C427.635 87.7271 427.568 87.3802 427.482 86.9756C427.231 85.7889 426.826 84.1003 426.206 82.0771C424.968 78.0339 422.868 72.6351 419.423 67.2285C412.512 56.3839 400.182 45.5225 378.68 45.5225C355.274 45.5225 342.845 56.3565 336.319 67.252C333.072 72.6734 331.298 78.0862 330.335 82.1387C329.853 84.1668 329.572 85.8598 329.412 87.0498C329.332 87.6448 329.282 88.1147 329.252 88.4385C329.237 88.6004 329.227 88.7262 329.221 88.8125C329.217 88.8555 329.215 88.8888 329.214 88.9121C329.213 88.9236 329.212 88.9329 329.212 88.9395C329.212 88.9426 329.211 88.9453 329.211 88.9473C329.211 88.9483 329.211 88.9497 329.211 88.9502C329.211 88.951 329.221 88.9524 330.21 89.0088L329.211 88.9521L329.21 88.9805Z" stroke="#BAA48D" stroke-width="2"/>
</svg>
