<svg width="20" height="21" viewBox="0 0 20 21" fill="none" xmlns="http://www.w3.org/2000/svg">
<path d="M17.5 16.7323L17.5 9.29091C17.5 8.73365 17.2215 8.21327 16.7578 7.90416L10.9245 4.01527C10.3647 3.64205 9.63533 3.64205 9.0755 4.01527L3.24217 7.90416C2.7785 8.21326 2.5 8.73365 2.5 9.29091L2.5 16.7323M17.5 16.7323C17.5 17.6527 16.7538 18.3989 15.8333 18.3989L4.16667 18.3989C3.24619 18.3989 2.5 17.6527 2.5 16.7323M17.5 16.7323L11.875 12.9823M2.5 16.7323L8.125 12.9823M17.5 9.23227L11.875 12.9823M2.5 9.23227L8.125 12.9823M8.125 12.9823L9.0755 13.6159C9.63533 13.9892 10.3647 13.9892 10.9245 13.6159L11.875 12.9823" stroke="#D0BFAC" stroke-linecap="round" stroke-linejoin="round"/>
</svg>
