<svg width="31" height="31" viewBox="0 0 31 31" fill="none" xmlns="http://www.w3.org/2000/svg">
<g clip-path="url(#clip0_443_66)">
<path d="M0.239746 -0.0642776H30.7852V32.0888H0.239746V-0.0642776Z" fill="#083F80"/>
<path d="M0.239746 11.1896H30.7852V20.7207H0.239746V11.1896Z" fill="white"/>
<path d="M18.4294 -0.139839V32.0133H12.3931V-0.139839H18.4294Z" fill="white"/>
<path d="M30.7852 28.529V32.0888H27.1488L0.239746 3.83997V-0.0642776H3.80337L30.7852 28.529Z" fill="white"/>
<path d="M30.7852 3.49556V-0.0642776H27.1488L0.239746 28.0697V32.0888H3.80337L30.7852 3.49556Z" fill="white"/>
<path d="M0.239777 2.46204L8.45796 11.1893H10.9307L0.239746 -0.0642776L0.239777 2.46204ZM30.7852 29.4477L22.567 20.7204H20.0943L30.7852 32.0888L30.7852 29.4477ZM18.4216 10.2706V11.1893H20.0216L30.7852 -0.0642776H28.0943L18.4216 10.2706ZM12.6034 21.7539V20.7204H11.0034L0.239777 32.0888H2.93068L12.6034 21.7539ZM13.6943 -0.0642776H17.258V32.0888H13.6943V-0.0642776Z" fill="#B7333C"/>
<path d="M0.164062 18.8154V13.1887H30.7822V18.8155L0.164062 18.8154Z" fill="#B7333C"/>
</g>
<defs>
<clipPath id="clip0_443_66">
<rect x="0.474609" y="0.974487" width="30" height="30" rx="15" fill="white"/>
</clipPath>
</defs>
</svg>
