<svg width="20" height="21" viewBox="0 0 20 21" fill="none" xmlns="http://www.w3.org/2000/svg">
<g clip-path="url(#clip0_222_962)">
<path d="M9.57031 1.50488C9.64844 1.49186 9.72331 1.48535 9.79492 1.48535C9.86654 1.48535 9.90885 1.48535 9.92188 1.48535C9.98698 1.48535 10.153 1.49186 10.4199 1.50488C10.6868 1.5179 10.8789 1.53092 10.9961 1.54395C11.3997 1.59603 11.7936 1.68066 12.1777 1.79785C12.5618 1.91504 12.9427 2.06478 13.3203 2.24707C14.0885 2.61165 14.7852 3.10645 15.4102 3.73145C16.0352 4.35645 16.5365 5.05957 16.9141 5.84082C17.1094 6.24447 17.2624 6.65462 17.373 7.07129C17.4837 7.48796 17.5651 7.93066 17.6172 8.39941C17.6432 8.54264 17.6562 8.80306 17.6562 9.18066C17.6562 9.55827 17.6432 9.83822 17.6172 10.0205C17.5521 10.7497 17.4316 11.4333 17.2559 12.0713C17.0801 12.7093 16.8294 13.3538 16.5039 14.0049C16.1914 14.6299 15.8366 15.2158 15.4395 15.7627C15.0423 16.3096 14.5768 16.8564 14.043 17.4033C13.7305 17.7158 13.4342 17.9958 13.1543 18.2432C12.8743 18.4906 12.5586 18.7445 12.207 19.0049C11.9336 19.2132 11.6276 19.4281 11.2891 19.6494C10.9505 19.8708 10.6966 20.027 10.5273 20.1182C10.4622 20.1442 10.3776 20.1702 10.2734 20.1963C10.1693 20.2223 10.0781 20.2354 10 20.2354C9.92188 20.2354 9.83073 20.2223 9.72656 20.1963C9.6224 20.1702 9.53776 20.1442 9.47266 20.1182C9.30339 20.04 9.05273 19.8903 8.7207 19.6689C8.38867 19.4476 8.08594 19.2327 7.8125 19.0244C7.44792 18.751 7.12565 18.4938 6.8457 18.2529C6.56576 18.012 6.26953 17.7288 5.95703 17.4033C5.42318 16.8564 4.95768 16.3096 4.56055 15.7627C4.16341 15.2158 3.80859 14.6299 3.49609 14.0049C3.30078 13.6012 3.13151 13.2106 2.98828 12.833C2.84505 12.4554 2.72786 12.0648 2.63672 11.6611C2.49349 11.0882 2.40234 10.4958 2.36328 9.88379C2.32422 9.27181 2.33724 8.7054 2.40234 8.18457C2.45443 7.7679 2.54557 7.34798 2.67578 6.9248C2.80599 6.50163 2.96224 6.10124 3.14453 5.72363C3.45703 5.11165 3.83464 4.55176 4.27734 4.04395C4.73307 3.53613 5.24089 3.09994 5.80078 2.73535C6.36068 2.37077 6.95964 2.08431 7.59766 1.87598C8.23568 1.66764 8.89323 1.54395 9.57031 1.50488ZM9.47266 2.75488C9.1862 2.78092 8.89648 2.8265 8.60352 2.8916C8.31055 2.95671 8.02083 3.04134 7.73438 3.14551C7.60417 3.19759 7.40885 3.28874 7.14844 3.41895C6.88802 3.54915 6.69922 3.65332 6.58203 3.73145C5.83984 4.2002 5.2181 4.79915 4.7168 5.52832C4.21549 6.25749 3.88021 7.04525 3.71094 7.8916C3.64583 8.25618 3.61003 8.64355 3.60352 9.05371C3.59701 9.46387 3.61979 9.8903 3.67188 10.333C3.76302 11.0622 3.9388 11.7783 4.19922 12.4814C4.45964 13.1846 4.80469 13.8649 5.23438 14.5225C5.66406 15.18 6.16536 15.8148 6.73828 16.4268C7.32422 17.0257 7.98177 17.5986 8.71094 18.1455C8.86719 18.2497 9.05273 18.3734 9.26758 18.5166C9.48242 18.6598 9.66146 18.7705 9.80469 18.8486L10 18.9854L10.2539 18.8291C10.9961 18.3734 11.7155 17.8395 12.4121 17.2275C13.1087 16.6156 13.7109 15.971 14.2188 15.2939C14.5964 14.8122 14.9219 14.3174 15.1953 13.8096C15.4688 13.3018 15.6966 12.7809 15.8789 12.2471C16.0612 11.7132 16.1979 11.1729 16.2891 10.626C16.3672 10.0791 16.3997 9.53223 16.3867 8.98535C16.3867 8.75098 16.377 8.55566 16.3574 8.39941C16.3379 8.24316 16.3086 8.06087 16.2695 7.85254C16.1003 7.00618 15.765 6.22168 15.2637 5.49902C14.7624 4.77637 14.1471 4.18717 13.418 3.73145C13.2878 3.65332 13.0957 3.54915 12.8418 3.41895C12.5879 3.28874 12.3958 3.19759 12.2656 3.14551C11.8099 2.98926 11.3444 2.87533 10.8691 2.80371C10.3939 2.7321 9.92839 2.71582 9.47266 2.75488ZM9.58984 5.02051C10.5534 4.92936 11.4421 5.14746 12.2559 5.6748C13.0697 6.20215 13.6263 6.92155 13.9258 7.83301C14.082 8.31478 14.1504 8.80957 14.1309 9.31738C14.1113 9.8252 14.0039 10.3135 13.8086 10.7822C13.5221 11.4463 13.0892 11.9964 12.5098 12.4326C11.9303 12.8688 11.276 13.139 10.5469 13.2432C10.4167 13.2692 10.2344 13.2822 10 13.2822C9.76562 13.2822 9.58333 13.2692 9.45312 13.2432C8.9974 13.1781 8.56771 13.0479 8.16406 12.8525C7.76042 12.6572 7.40234 12.4033 7.08984 12.0908C6.52995 11.5309 6.15885 10.8701 5.97656 10.1084C5.79427 9.34668 5.82682 8.58822 6.07422 7.83301C6.32161 7.06478 6.76758 6.4235 7.41211 5.90918C8.05664 5.39486 8.78255 5.09863 9.58984 5.02051ZM9.6875 6.27051C9.49219 6.29655 9.31641 6.33561 9.16016 6.3877C9.00391 6.43978 8.85417 6.49837 8.71094 6.56348C8.28125 6.77181 7.92969 7.07129 7.65625 7.46191C7.38281 7.85254 7.21354 8.28874 7.14844 8.77051C7.1224 8.87467 7.11263 9.03418 7.11914 9.24902C7.12565 9.46387 7.14193 9.62337 7.16797 9.72754C7.23307 10.001 7.33073 10.2614 7.46094 10.5088C7.59115 10.7562 7.76042 10.9775 7.96875 11.1729C8.21615 11.4202 8.49284 11.6156 8.79883 11.7588C9.10482 11.902 9.43359 11.9867 9.78516 12.0127C10.2018 12.0518 10.6055 11.9964 10.9961 11.8467C11.3867 11.6969 11.7318 11.4723 12.0312 11.1729C12.2396 10.9775 12.4089 10.7562 12.5391 10.5088C12.6693 10.2614 12.7669 10.001 12.832 9.72754C12.8581 9.62337 12.8743 9.46712 12.8809 9.25879C12.8874 9.05046 12.8776 8.8877 12.8516 8.77051C12.7995 8.35384 12.6595 7.96322 12.4316 7.59863C12.2038 7.23405 11.901 6.93457 11.5234 6.7002C11.4062 6.62207 11.2598 6.5472 11.084 6.47559C10.9082 6.40397 10.7422 6.34863 10.5859 6.30957C10.4948 6.29655 10.3418 6.28353 10.127 6.27051C9.91211 6.25749 9.76562 6.25749 9.6875 6.27051Z" fill="#D0BFAC"/>
</g>
<defs>
<clipPath id="clip0_222_962">
<rect width="20" height="20" fill="white" transform="matrix(1 0 0 -1 0 20.8994)"/>
</clipPath>
</defs>
</svg>
