<svg width="20" height="21" viewBox="0 0 20 21" fill="none" xmlns="http://www.w3.org/2000/svg">
<g clip-path="url(#clip0_222_954)">
<path d="M3.75 1.52441C3.82812 1.51139 3.97135 1.50814 4.17969 1.51465C4.38802 1.52116 4.52474 1.53092 4.58984 1.54395C4.74609 1.59603 4.89258 1.65462 5.0293 1.71973C5.16602 1.78483 5.29297 1.86947 5.41016 1.97363C5.44922 1.99967 5.61523 2.15592 5.9082 2.44238C6.20117 2.72884 6.52995 3.06087 6.89453 3.43848C7.45443 3.99837 7.82878 4.37272 8.01758 4.56152C8.20638 4.75033 8.32031 4.88379 8.35938 4.96191C8.4375 5.06608 8.49935 5.17025 8.54492 5.27441C8.5905 5.37858 8.6263 5.49577 8.65234 5.62598C8.67839 5.7041 8.69466 5.77246 8.70117 5.83105C8.70768 5.88965 8.71094 5.98405 8.71094 6.11426C8.71094 6.24447 8.70768 6.33887 8.70117 6.39746C8.69466 6.45605 8.67839 6.52441 8.65234 6.60254C8.61328 6.78483 8.55143 6.94759 8.4668 7.09082C8.38216 7.23405 8.27474 7.37728 8.14453 7.52051C8.04036 7.65072 7.96875 7.75814 7.92969 7.84277C7.89062 7.92741 7.87109 8.02832 7.87109 8.14551C7.87109 8.23665 7.88411 8.31478 7.91016 8.37988C7.9362 8.44499 7.96875 8.5166 8.00781 8.59473C8.03385 8.62077 8.25846 8.84863 8.68164 9.27832C9.10482 9.70801 9.60286 10.2158 10.1758 10.8018C11.0221 11.6351 11.5918 12.195 11.8848 12.4814C12.1777 12.7679 12.3503 12.9242 12.4023 12.9502C12.4674 12.9893 12.5488 13.0153 12.6465 13.0283C12.7441 13.0413 12.832 13.0413 12.9102 13.0283C12.9883 13.0023 13.0632 12.9697 13.1348 12.9307C13.2064 12.8916 13.2943 12.8265 13.3984 12.7354C13.6198 12.5531 13.8444 12.4196 14.0723 12.335C14.3001 12.2503 14.5443 12.208 14.8047 12.208C15.026 12.208 15.2441 12.2406 15.459 12.3057C15.6738 12.3708 15.8724 12.4749 16.0547 12.6182C16.0807 12.6442 16.2435 12.8005 16.543 13.0869C16.8424 13.3734 17.181 13.7119 17.5586 14.1025C18.1445 14.6755 18.5319 15.0596 18.7207 15.2549C18.9095 15.4502 19.0234 15.5869 19.0625 15.665C19.2969 16.0296 19.4141 16.417 19.4141 16.8271C19.4141 17.2373 19.2904 17.6247 19.043 17.9893C18.9909 18.0674 18.8118 18.2627 18.5059 18.5752C18.1999 18.8877 17.9818 19.096 17.8516 19.2002C17.5 19.4867 17.1257 19.7178 16.7285 19.8936C16.3314 20.0693 15.8984 20.1963 15.4297 20.2744C15.2604 20.3005 15.0098 20.3135 14.6777 20.3135C14.3457 20.3135 14.0951 20.2939 13.9258 20.2549C13.6133 20.2028 13.3236 20.1312 13.0566 20.04C12.7897 19.9489 12.5326 19.8317 12.2852 19.6885C12.1289 19.5973 11.8262 19.3955 11.377 19.083C10.9277 18.7705 10.5143 18.4645 10.1367 18.165C9.31641 17.54 8.51562 16.8825 7.73438 16.1924C6.96615 15.5023 6.22721 14.7829 5.51758 14.0342C4.80794 13.2855 4.1276 12.5075 3.47656 11.7002C2.8125 10.8929 2.1875 10.0661 1.60156 9.21973C1.44531 8.99837 1.33789 8.83236 1.2793 8.72168C1.2207 8.611 1.15234 8.47754 1.07422 8.32129C0.957031 8.09993 0.859375 7.85254 0.78125 7.5791C0.703125 7.30566 0.651042 7.03223 0.625 6.75879C0.598958 6.60254 0.589193 6.39421 0.595703 6.13379C0.602214 5.87337 0.61849 5.65853 0.644531 5.48926C0.709635 5.04655 0.823568 4.63639 0.986328 4.25879C1.14909 3.88119 1.36719 3.51009 1.64062 3.14551C1.74479 3.0153 1.96289 2.78418 2.29492 2.45215C2.62695 2.12012 2.83854 1.92155 2.92969 1.85645C3.0599 1.77832 3.19336 1.70996 3.33008 1.65137C3.4668 1.59277 3.60677 1.55046 3.75 1.52441ZM3.96484 2.75488C3.84766 2.78092 3.74674 2.82324 3.66211 2.88184C3.57747 2.94043 3.41797 3.09342 3.18359 3.34082C2.89714 3.62728 2.69206 3.85189 2.56836 4.01465C2.44466 4.17741 2.32422 4.37598 2.20703 4.61035C2.07682 4.88379 1.98568 5.14095 1.93359 5.38184C1.88151 5.62272 1.85547 5.89941 1.85547 6.21191C1.85547 6.51139 1.87826 6.77181 1.92383 6.99316C1.9694 7.21452 2.05078 7.4554 2.16797 7.71582C2.23307 7.84603 2.29818 7.96973 2.36328 8.08691C2.42839 8.2041 2.54557 8.37988 2.71484 8.61426C3.35286 9.53874 4.04297 10.4437 4.78516 11.3291C5.51432 12.2015 6.28255 13.0413 7.08984 13.8486C7.89714 14.6559 8.73698 15.4242 9.60938 16.1533C10.4948 16.8825 11.3997 17.5726 12.3242 18.2236C12.5846 18.4059 12.7897 18.5394 12.9395 18.624C13.0892 18.7087 13.2487 18.777 13.418 18.8291C13.6393 18.9072 13.8509 18.9658 14.0527 19.0049C14.2546 19.0439 14.4727 19.0635 14.707 19.0635C15.1107 19.0635 15.498 19.0016 15.8691 18.8779C16.2402 18.7542 16.5951 18.5687 16.9336 18.3213C17.0638 18.2301 17.2754 18.0348 17.5684 17.7354C17.8613 17.4359 18.0273 17.2601 18.0664 17.208C18.1315 17.0778 18.1641 16.9443 18.1641 16.8076C18.1641 16.6709 18.1315 16.5439 18.0664 16.4268C18.0534 16.4007 17.9036 16.238 17.6172 15.9385C17.3438 15.652 17.0378 15.3395 16.6992 15.001C16.3607 14.6624 16.0417 14.3499 15.7422 14.0635C15.4557 13.777 15.293 13.6208 15.2539 13.5947C15.1758 13.5426 15.1042 13.5068 15.0391 13.4873C14.974 13.4678 14.8958 13.458 14.8047 13.458C14.6745 13.458 14.5671 13.4775 14.4824 13.5166C14.3978 13.5557 14.2969 13.6273 14.1797 13.7314C14.0365 13.8486 13.8997 13.9463 13.7695 14.0244C13.6393 14.1025 13.4961 14.1611 13.3398 14.2002C13.0273 14.2913 12.7116 14.3076 12.3926 14.249C12.0736 14.1904 11.7839 14.0635 11.5234 13.8682C11.4714 13.8291 11.2467 13.6143 10.8496 13.2236C10.4525 12.833 9.90234 12.2926 9.19922 11.6025C8.37891 10.7692 7.8125 10.193 7.5 9.87402C7.1875 9.55501 7.01172 9.36296 6.97266 9.29785C6.86849 9.1416 6.78711 8.97559 6.72852 8.7998C6.66992 8.62402 6.63411 8.43848 6.62109 8.24316C6.60807 7.95671 6.64714 7.68978 6.73828 7.44238C6.82943 7.19499 6.97917 6.9541 7.1875 6.71973C7.26562 6.6416 7.32096 6.57324 7.35352 6.51465C7.38607 6.45605 7.41536 6.3877 7.44141 6.30957C7.46745 6.21842 7.47396 6.12077 7.46094 6.0166C7.44792 5.91243 7.41536 5.81478 7.36328 5.72363C7.35026 5.68457 7.23633 5.55436 7.02148 5.33301C6.80664 5.11165 6.46484 4.77311 5.99609 4.31738C5.64453 3.9528 5.32878 3.63379 5.04883 3.36035C4.76888 3.08691 4.61589 2.93717 4.58984 2.91113C4.51172 2.84603 4.41732 2.80046 4.30664 2.77441C4.19596 2.74837 4.08203 2.74186 3.96484 2.75488Z" fill="#D0BFAC"/>
</g>
<defs>
<clipPath id="clip0_222_954">
<rect width="20" height="20" fill="white" transform="matrix(1 0 0 -1 0 20.8994)"/>
</clipPath>
</defs>
</svg>
