<svg width="248" height="69" viewBox="0 0 248 69" fill="none" xmlns="http://www.w3.org/2000/svg">
<path d="M0 0H93V63H0V0Z" fill="#0A2540"/>
<path d="M29.093 22.8165V32.4733H33.4742C34.2844 32.4474 34.9551 32.172 35.4834 31.6437C36.018 31.1188 36.287 30.4447 36.287 29.6217V29.3235H36.624V36.9842H36.287V36.7249C36.287 35.9051 36.0278 35.231 35.5093 34.7028C34.9908 34.1681 34.333 33.8927 33.539 33.8732H29.093V42.1949C29.093 42.775 29.3004 43.2676 29.7152 43.6726C30.1365 44.0809 30.6355 44.2818 31.2058 44.2818H31.6077L31.6466 44.6189H21.562V44.2818H21.9898C22.5601 44.2818 23.0462 44.0809 23.4545 43.6726C23.8693 43.2676 24.0896 42.775 24.1156 42.1949V23.7109C24.1156 22.9429 23.7461 22.3693 23.0138 21.987C22.7027 21.8152 22.3592 21.7277 21.9898 21.7277H21.562V21.3907H34.2649C34.9454 21.3907 35.6972 21.3259 36.5203 21.1963C37.3402 21.0602 37.9138 20.9241 38.2443 20.7944V26.407H37.9202V26.07C37.9202 25.0946 37.6351 24.3169 37.0647 23.7368C36.5009 23.1503 35.7329 22.8425 34.7575 22.8165H29.093Z" fill="white"/>
<path d="M41.7317 44.2818C42.302 44.2818 42.7881 44.0809 43.1964 43.6726C43.6112 43.2675 43.8316 42.7749 43.8575 42.1949V23.7757C43.8316 23.2053 43.6112 22.7225 43.1964 22.3239C42.7881 21.9286 42.302 21.7276 41.7317 21.7276H41.304V21.3906H51.3885L51.3496 21.7276H50.9478C50.3775 21.7276 49.8784 21.9286 49.4571 22.3239C49.0424 22.7225 48.835 23.2053 48.835 23.7757V42.1949C48.835 42.7749 49.0424 43.2675 49.4571 43.6726C49.8784 44.0809 50.3775 44.2818 50.9478 44.2818H51.3496L51.3885 44.6188H41.304V44.2818H41.7317Z" fill="white"/>
<path d="M54.5391 44.2818C55.1094 44.2818 55.5955 44.0809 56.0038 43.6726C56.4186 43.2675 56.6389 42.7749 56.6649 42.1949V23.8145C56.6389 23.2377 56.4186 22.7452 56.0038 22.3369C55.5955 21.9318 55.1094 21.7276 54.5391 21.7276H54.1113V21.3906H64.1959L64.157 21.7276H63.7552C63.1848 21.7276 62.6858 21.9318 62.2645 22.3369C61.8497 22.7452 61.6423 23.2377 61.6423 23.8145V43.193H65.9847C67.5984 43.193 68.953 42.7328 70.0418 41.806C71.1371 40.8727 71.9537 39.5571 72.4916 37.8526H72.8157L71.2991 44.6188H54.1113V44.2818H54.5391Z" fill="white"/>
<path d="M105.787 21.4301V25.5391H111.193V26.4983H105.787V30.9314H104.673V20.4839H111.841V21.4301H105.787Z" fill="#BBA25A"/>
<path d="M118.986 27.3275H112.414C112.473 28.1506 112.784 28.8117 113.348 29.3107C113.918 29.813 114.634 30.0625 115.499 30.0625C115.992 30.0625 116.439 29.9783 116.848 29.8033C117.253 29.6315 117.606 29.3755 117.91 29.0385L118.507 29.7255C118.15 30.1403 117.716 30.4611 117.197 30.6847C116.679 30.9018 116.102 31.0088 115.474 31.0088C114.67 31.0088 113.957 30.837 113.335 30.4903C112.713 30.1468 112.223 29.6704 111.87 29.0644C111.523 28.4617 111.352 27.7747 111.352 27.0035C111.352 26.2355 111.514 25.5485 111.844 24.9425C112.181 24.3397 112.638 23.8666 113.218 23.5296C113.805 23.1861 114.462 23.0111 115.188 23.0111C115.914 23.0111 116.566 23.1861 117.146 23.5296C117.722 23.8666 118.176 24.3397 118.507 24.9425C118.834 25.5387 118.999 26.2257 118.999 27.0035L118.986 27.3275ZM115.188 23.9314C114.437 23.9314 113.801 24.1745 113.283 24.6573C112.771 25.1337 112.483 25.7591 112.414 26.5368H117.975C117.904 25.7591 117.616 25.1337 117.107 24.6573C116.595 24.1745 115.956 23.9314 115.188 23.9314ZM116.264 20.0039H117.69L115.266 21.8575H114.229L116.264 20.0039Z" fill="#BBA25A"/>
<path d="M126.837 19.8477V30.9303H125.825V29.3748C125.505 29.903 125.08 30.3081 124.555 30.5933C124.037 30.872 123.447 31.0081 122.792 31.0081C122.057 31.0081 121.386 30.8396 120.783 30.5025C120.187 30.159 119.72 29.6827 119.383 29.0767C119.046 28.474 118.878 27.7805 118.878 27.0028C118.878 26.225 119.046 25.5348 119.383 24.9288C119.72 24.3261 120.187 23.853 120.783 23.5159C121.386 23.1789 122.057 23.0104 122.792 23.0104C123.431 23.0104 124.004 23.1465 124.516 23.4122C125.025 23.6715 125.443 24.0571 125.774 24.5659V19.8477H126.837ZM122.883 30.0618C123.427 30.0618 123.92 29.9387 124.361 29.6859C124.808 29.4267 125.158 29.0637 125.411 28.5971C125.66 28.1305 125.787 27.599 125.787 27.0028C125.787 26.4065 125.66 25.8751 125.411 25.4084C125.158 24.9418 124.808 24.5853 124.361 24.3326C123.92 24.0733 123.427 23.9437 122.883 23.9437C122.319 23.9437 121.82 24.0733 121.379 24.3326C120.939 24.5853 120.589 24.9418 120.33 25.4084C120.077 25.8751 119.954 26.4065 119.954 27.0028C119.954 27.599 120.077 28.1305 120.33 28.5971C120.589 29.0637 120.939 29.4267 121.379 29.6859C121.82 29.9387 122.319 30.0618 122.883 30.0618Z" fill="#BBA25A"/>
<path d="M135.143 27.3275H128.572C128.63 28.1506 128.941 28.8117 129.505 29.3107C130.075 29.813 130.791 30.0625 131.656 30.0625C132.149 30.0625 132.596 29.9783 133.005 29.8033C133.41 29.6315 133.763 29.3755 134.067 29.0385L134.664 29.7255C134.307 30.1403 133.873 30.4611 133.355 30.6847C132.836 30.9018 132.259 31.0088 131.631 31.0088C130.827 31.0088 130.114 30.837 129.492 30.4903C128.87 30.1468 128.38 29.6704 128.027 29.0644C127.68 28.4617 127.509 27.7747 127.509 27.0035C127.509 26.2355 127.671 25.5485 128.001 24.9425C128.338 24.3397 128.795 23.8666 129.375 23.5296C129.962 23.1861 130.62 23.0111 131.345 23.0111C132.071 23.0111 132.723 23.1861 133.303 23.5296C133.879 23.8666 134.333 24.3397 134.664 24.9425C134.991 25.5387 135.156 26.2257 135.156 27.0035L135.143 27.3275ZM131.345 23.9314C130.594 23.9314 129.958 24.1745 129.44 24.6573C128.928 25.1337 128.64 25.7591 128.572 26.5368H134.132C134.061 25.7591 133.773 25.1337 133.264 24.6573C132.752 24.1745 132.113 23.9314 131.345 23.9314ZM132.421 20.0039H133.847L131.423 21.8575H130.386L132.421 20.0039Z" fill="#BBA25A"/>
<path d="M136.836 24.6185C137.086 24.0936 137.458 23.695 137.951 23.426C138.443 23.1506 139.053 23.0112 139.778 23.0112V24.0482L139.532 24.0352C138.703 24.0352 138.055 24.2912 137.588 24.8C137.121 25.3023 136.888 26.012 136.888 26.9258V30.9311H135.825V23.076H136.836V24.6185Z" fill="#BBA25A"/>
<path d="M142.933 23.0112C143.961 23.0112 144.748 23.2705 145.292 23.789C145.837 24.301 146.109 25.056 146.109 26.0573V30.9311H145.098V29.7127C144.855 30.121 144.502 30.4385 144.035 30.6719C143.575 30.8987 143.03 31.0089 142.402 31.0089C141.52 31.0089 140.82 30.8015 140.302 30.3867C139.783 29.9654 139.524 29.4113 139.524 28.7275C139.524 28.0535 139.764 27.5156 140.25 27.1073C140.733 26.7022 141.501 26.498 142.557 26.498H145.059V26.0184C145.059 25.3444 144.868 24.8324 144.489 24.476C144.106 24.1227 143.555 23.9445 142.83 23.9445C142.327 23.9445 141.848 24.0288 141.391 24.1908C140.931 24.3561 140.539 24.5797 140.211 24.8648L139.732 24.0741C140.137 23.7371 140.616 23.4779 141.17 23.2964C141.731 23.1084 142.318 23.0112 142.933 23.0112ZM142.557 30.1663C143.154 30.1663 143.662 30.0335 144.087 29.7645C144.518 29.4891 144.842 29.0905 145.059 28.572V27.2887H142.596C141.248 27.2887 140.574 27.7554 140.574 28.6886C140.574 29.1488 140.746 29.5117 141.093 29.7775C141.446 30.0367 141.935 30.1663 142.557 30.1663Z" fill="#BBA25A"/>
<path d="M151.637 30.4512C151.436 30.6327 151.19 30.772 150.899 30.866C150.604 30.96 150.296 31.0086 149.978 31.0086C149.243 31.0086 148.676 30.8109 148.28 30.4123C147.882 30.017 147.684 29.4531 147.684 28.7272V23.9701H146.284V23.0757H147.684V21.3647H148.747V23.0757H151.132V23.9701H148.747V28.6624C148.747 29.1291 148.863 29.4855 149.097 29.7253C149.33 29.9684 149.661 30.0883 150.095 30.0883C150.318 30.0883 150.529 30.0559 150.73 29.9846C150.937 29.9165 151.112 29.8161 151.261 29.6864L151.637 30.4512Z" fill="#BBA25A"/>
<path d="M152.072 23.0752H153.135V30.9303H152.072V23.0752ZM152.603 21.3642C152.386 21.3642 152.201 21.2929 152.046 21.1439C151.897 20.9883 151.825 20.8069 151.825 20.5995C151.825 20.4018 151.897 20.23 152.046 20.081C152.201 19.9254 152.386 19.8477 152.603 19.8477C152.827 19.8477 153.011 19.9222 153.16 20.068C153.306 20.2171 153.381 20.3888 153.381 20.5865C153.381 20.8036 153.306 20.9883 153.16 21.1439C153.011 21.2929 152.827 21.3642 152.603 21.3642Z" fill="#BBA25A"/>
<path d="M157.81 31.0089C157.048 31.0089 156.365 30.8371 155.762 30.4904C155.156 30.1469 154.676 29.6705 154.323 29.0646C153.976 28.4618 153.805 27.7748 153.805 27.0036C153.805 26.2356 153.976 25.5486 154.323 24.9426C154.676 24.3399 155.156 23.8667 155.762 23.5297C156.365 23.1862 157.048 23.0112 157.81 23.0112C158.562 23.0112 159.239 23.1862 159.845 23.5297C160.458 23.8667 160.934 24.3399 161.271 24.9426C161.614 25.5486 161.789 26.2356 161.789 27.0036C161.789 27.7748 161.614 28.4618 161.271 29.0646C160.934 29.6705 160.458 30.1469 159.845 30.4904C159.239 30.8371 158.562 31.0089 157.81 31.0089ZM157.81 30.0626C158.361 30.0626 158.86 29.9395 159.301 29.6867C159.748 29.4275 160.095 29.0646 160.338 28.5979C160.587 28.1313 160.714 27.5998 160.714 27.0036C160.714 26.4073 160.587 25.8759 160.338 25.4092C160.095 24.9426 159.748 24.5861 159.301 24.3334C158.86 24.0741 158.361 23.9445 157.81 23.9445C157.246 23.9445 156.747 24.0741 156.306 24.3334C155.866 24.5861 155.516 24.9426 155.256 25.4092C155.004 25.8759 154.881 26.4073 154.881 27.0036C154.881 27.5998 155.004 28.1313 155.256 28.5979C155.516 29.0646 155.866 29.4275 156.306 29.6867C156.747 29.9395 157.246 30.0626 157.81 30.0626Z" fill="#BBA25A"/>
<path d="M166.47 23.0112C167.455 23.0112 168.236 23.3029 168.816 23.8797C169.402 24.45 169.697 25.2861 169.697 26.3814V30.9311H168.634V26.4851C168.634 25.6652 168.427 25.043 168.012 24.6185C167.604 24.1875 167.027 23.9704 166.275 23.9704C165.426 23.9704 164.759 24.2264 164.266 24.7352C163.774 25.2375 163.527 25.9277 163.527 26.8091V30.9311H162.464V23.076H163.476V24.5278C163.767 24.045 164.169 23.6723 164.681 23.4131C165.19 23.1473 165.786 23.0112 166.47 23.0112Z" fill="#BBA25A"/>
<path d="M173.72 20.4839H174.835V30.9314H173.72V20.4839Z" fill="#BBA25A"/>
<path d="M186.315 23.0112C187.3 23.0112 188.072 23.2964 188.636 23.8667C189.196 24.4371 189.478 25.2764 189.478 26.3814V30.9311H188.415V26.4851C188.415 25.6652 188.214 25.043 187.819 24.6185C187.43 24.1875 186.876 23.9704 186.16 23.9704C185.346 23.9704 184.702 24.2264 184.228 24.7352C183.762 25.2375 183.529 25.9277 183.529 26.8091V30.9311H182.479V26.4851C182.479 25.6652 182.278 25.043 181.882 24.6185C181.493 24.1875 180.936 23.9704 180.21 23.9704C179.397 23.9704 178.752 24.2264 178.279 24.7352C177.812 25.2375 177.579 25.9277 177.579 26.8091V30.9311H176.516V23.076H177.527V24.5148C177.812 24.032 178.201 23.6593 178.694 23.4001C179.193 23.1409 179.769 23.0112 180.418 23.0112C181.072 23.0112 181.639 23.1538 182.116 23.439C182.598 23.7177 182.961 24.126 183.204 24.6704C183.496 24.1519 183.911 23.7468 184.449 23.4519C184.993 23.1603 185.615 23.0112 186.315 23.0112Z" fill="#BBA25A"/>
<path d="M200.665 23.0112C201.651 23.0112 202.422 23.2964 202.986 23.8667C203.546 24.4371 203.828 25.2764 203.828 26.3814V30.9311H202.765V26.4851C202.765 25.6652 202.564 25.043 202.169 24.6185C201.78 24.1875 201.226 23.9704 200.51 23.9704C199.696 23.9704 199.052 24.2264 198.579 24.7352C198.112 25.2375 197.879 25.9277 197.879 26.8091V30.9311H196.829V26.4851C196.829 25.6652 196.628 25.043 196.232 24.6185C195.843 24.1875 195.286 23.9704 194.56 23.9704C193.747 23.9704 193.102 24.2264 192.629 24.7352C192.162 25.2375 191.929 25.9277 191.929 26.8091V30.9311H190.866V23.076H191.877V24.5148C192.162 24.032 192.551 23.6593 193.044 23.4001C193.543 23.1409 194.12 23.0112 194.768 23.0112C195.422 23.0112 195.989 23.1538 196.466 23.439C196.949 23.7177 197.311 24.126 197.554 24.6704C197.846 24.1519 198.261 23.7468 198.799 23.4519C199.343 23.1603 199.965 23.0112 200.665 23.0112Z" fill="#BBA25A"/>
<path d="M208.46 31.0089C207.699 31.0089 207.015 30.8371 206.412 30.4904C205.806 30.1469 205.327 29.6705 204.974 29.0646C204.627 28.4618 204.455 27.7748 204.455 27.0036C204.455 26.2356 204.627 25.5486 204.974 24.9426C205.327 24.3399 205.806 23.8667 206.412 23.5297C207.015 23.1862 207.699 23.0112 208.46 23.0112C209.212 23.0112 209.889 23.1862 210.495 23.5297C211.108 23.8667 211.584 24.3399 211.921 24.9426C212.265 25.5486 212.44 26.2356 212.44 27.0036C212.44 27.7748 212.265 28.4618 211.921 29.0646C211.584 29.6705 211.108 30.1469 210.495 30.4904C209.889 30.8371 209.212 31.0089 208.46 31.0089ZM208.46 30.0626C209.011 30.0626 209.51 29.9395 209.951 29.6867C210.398 29.4275 210.745 29.0646 210.988 28.5979C211.238 28.1313 211.364 27.5998 211.364 27.0036C211.364 26.4073 211.238 25.8759 210.988 25.4092C210.745 24.9426 210.398 24.5861 209.951 24.3334C209.51 24.0741 209.011 23.9445 208.46 23.9445C207.897 23.9445 207.397 24.0741 206.957 24.3334C206.516 24.5861 206.166 24.9426 205.907 25.4092C205.654 25.8759 205.531 26.4073 205.531 27.0036C205.531 27.5998 205.654 28.1313 205.907 28.5979C206.166 29.0646 206.516 29.4275 206.957 29.6867C207.397 29.9395 207.897 30.0626 208.46 30.0626Z" fill="#BBA25A"/>
<path d="M217.159 23.0104C217.891 23.0104 218.559 23.1789 219.155 23.5159C219.758 23.853 220.231 24.3261 220.568 24.9288C220.905 25.5348 221.074 26.225 221.074 27.0028C221.074 27.7805 220.905 28.474 220.568 29.0767C220.231 29.6827 219.758 30.159 219.155 30.5025C218.559 30.8396 217.891 31.0081 217.159 31.0081C216.501 31.0081 215.908 30.872 215.383 30.5933C214.865 30.3081 214.443 29.903 214.126 29.3748V30.9303H213.115V19.8477H214.178V24.5659C214.505 24.0571 214.923 23.6715 215.435 23.4122C215.954 23.1465 216.527 23.0104 217.159 23.0104ZM217.081 30.0618C217.632 30.0618 218.134 29.9387 218.585 29.6859C219.032 29.4267 219.382 29.0637 219.635 28.5971C219.884 28.1305 220.011 27.599 220.011 27.0028C220.011 26.4065 219.884 25.8751 219.635 25.4084C219.382 24.9418 219.032 24.5853 218.585 24.3326C218.134 24.0733 217.632 23.9437 217.081 23.9437C216.527 23.9437 216.025 24.0733 215.578 24.3326C215.137 24.5853 214.79 24.9418 214.541 25.4084C214.288 25.8751 214.165 26.4065 214.165 27.0028C214.165 27.599 214.288 28.1305 214.541 28.5971C214.79 29.0637 215.137 29.4267 215.578 29.6859C216.025 29.9387 216.527 30.0618 217.081 30.0618Z" fill="#BBA25A"/>
<path d="M221.746 23.0752H222.809V30.9303H221.746V23.0752ZM222.277 21.3642C222.06 21.3642 221.876 21.2929 221.72 21.1439C221.571 20.9883 221.5 20.8069 221.5 20.5995C221.5 20.4018 221.571 20.23 221.72 20.081C221.876 19.9254 222.06 19.8477 222.277 19.8477C222.501 19.8477 222.686 19.9222 222.835 20.068C222.981 20.2171 223.055 20.3888 223.055 20.5865C223.055 20.8036 222.981 20.9883 222.835 21.1439C222.686 21.2929 222.501 21.3642 222.277 21.3642Z" fill="#BBA25A"/>
<path d="M224.27 19.8477H225.332V30.9303H224.27V19.8477Z" fill="#BBA25A"/>
<path d="M226.793 23.0752H227.856V30.9303H226.793V23.0752ZM227.325 21.3642C227.107 21.3642 226.923 21.2929 226.767 21.1439C226.618 20.9883 226.547 20.8069 226.547 20.5995C226.547 20.4018 226.618 20.23 226.767 20.081C226.923 19.9254 227.107 19.8477 227.325 19.8477C227.548 19.8477 227.733 19.9222 227.882 20.068C228.028 20.2171 228.102 20.3888 228.102 20.5865C228.102 20.8036 228.028 20.9883 227.882 21.1439C227.733 21.2929 227.548 21.3642 227.325 21.3642Z" fill="#BBA25A"/>
<path d="M236.16 27.3275H229.589C229.647 28.1506 229.958 28.8117 230.522 29.3107C231.092 29.813 231.808 30.0625 232.674 30.0625C233.166 30.0625 233.613 29.9783 234.022 29.8033C234.427 29.6315 234.78 29.3755 235.085 29.0385L235.681 29.7255C235.324 30.1403 234.89 30.4611 234.372 30.6847C233.853 30.9018 233.276 31.0088 232.648 31.0088C231.844 31.0088 231.131 30.837 230.509 30.4903C229.887 30.1468 229.397 29.6704 229.044 29.0644C228.698 28.4617 228.526 27.7747 228.526 27.0035C228.526 26.2355 228.688 25.5485 229.018 24.9425C229.355 24.3397 229.812 23.8666 230.392 23.5296C230.979 23.1861 231.637 23.0111 232.363 23.0111C233.088 23.0111 233.74 23.1861 234.32 23.5296C234.897 23.8666 235.35 24.3397 235.681 24.9425C236.008 25.5387 236.173 26.2257 236.173 27.0035L236.16 27.3275ZM232.363 23.9314C231.611 23.9314 230.976 24.1745 230.457 24.6573C229.945 25.1337 229.657 25.7591 229.589 26.5368H235.149C235.078 25.7591 234.79 25.1337 234.281 24.6573C233.769 24.1745 233.131 23.9314 232.363 23.9314ZM229.874 20.0039H231.287L233.335 21.8575H232.298L229.874 20.0039Z" fill="#BBA25A"/>
<path d="M237.854 24.6185C238.103 24.0936 238.476 23.695 238.968 23.426C239.461 23.1506 240.07 23.0112 240.796 23.0112V24.0482L240.55 24.0352C239.72 24.0352 239.072 24.2912 238.605 24.8C238.139 25.3023 237.905 26.012 237.905 26.9258V30.9311H236.843V23.076H237.854V24.6185Z" fill="#BBA25A"/>
<path d="M247.987 27.3276H241.415C241.474 28.1507 241.785 28.8118 242.349 29.3108C242.919 29.8131 243.635 30.0626 244.5 30.0626C244.993 30.0626 245.44 29.9784 245.848 29.8034C246.253 29.6316 246.607 29.3756 246.911 29.0386L247.507 29.7256C247.151 30.1404 246.717 30.4612 246.198 30.6848C245.68 30.9019 245.103 31.0089 244.474 31.0089C243.671 31.0089 242.958 30.8371 242.336 30.4904C241.713 30.1469 241.224 29.6705 240.871 29.0646C240.524 28.4618 240.352 27.7748 240.352 27.0036C240.352 26.2356 240.514 25.5486 240.845 24.9426C241.182 24.3399 241.639 23.8667 242.219 23.5297C242.805 23.1862 243.463 23.0112 244.189 23.0112C244.915 23.0112 245.566 23.1862 246.146 23.5297C246.723 23.8667 247.177 24.3399 247.507 24.9426C247.835 25.5388 248 26.2258 248 27.0036L247.987 27.3276ZM244.189 23.9315C243.437 23.9315 242.802 24.1746 242.284 24.6574C241.772 25.1338 241.483 25.7592 241.415 26.5369H246.976C246.905 25.7592 246.616 25.1338 246.108 24.6574C245.596 24.1746 244.957 23.9315 244.189 23.9315Z" fill="#BBA25A"/>
<path d="M111.621 36.647V47.7296H110.609V46.1741C110.289 46.7024 109.864 47.1074 109.339 47.3926C108.821 47.6713 108.231 47.8074 107.576 47.8074C106.841 47.8074 106.17 47.6389 105.567 47.3019C104.971 46.9584 104.504 46.482 104.167 45.876C103.83 45.2733 103.662 44.5798 103.662 43.8021C103.662 43.0243 103.83 42.3341 104.167 41.7281C104.504 41.1254 104.971 40.6523 105.567 40.3153C106.17 39.9782 106.841 39.8097 107.576 39.8097C108.215 39.8097 108.788 39.9458 109.3 40.2116C109.809 40.4708 110.227 40.8564 110.558 41.3652V36.647H111.621ZM107.667 46.8611C108.211 46.8611 108.704 46.738 109.145 46.4852C109.592 46.226 109.942 45.8631 110.195 45.3964C110.444 44.9298 110.571 44.3983 110.571 43.8021C110.571 43.2058 110.444 42.6744 110.195 42.2077C109.942 41.7411 109.592 41.3846 109.145 41.1319C108.704 40.8726 108.211 40.743 107.667 40.743C107.103 40.743 106.604 40.8726 106.163 41.1319C105.723 41.3846 105.373 41.7411 105.114 42.2077C104.861 42.6744 104.738 43.2058 104.738 43.8021C104.738 44.3983 104.861 44.9298 105.114 45.3964C105.373 45.8631 105.723 46.226 106.163 46.4852C106.604 46.738 107.103 46.8611 107.667 46.8611Z" fill="#BBA25A"/>
<path d="M120.161 39.8745V47.7296H119.15V46.2908C118.871 46.7769 118.488 47.1528 117.996 47.4185C117.51 47.6777 116.952 47.8073 116.324 47.8073C115.293 47.8073 114.483 47.5222 113.887 46.9518C113.297 46.375 113.005 45.5325 113.005 44.4242V39.8745H114.068V44.3205C114.068 45.1501 114.269 45.782 114.678 46.213C115.092 46.6375 115.676 46.8481 116.427 46.8481C117.257 46.8481 117.908 46.5986 118.385 46.0963C118.858 45.5973 119.098 44.8973 119.098 43.9965V39.8745H120.161Z" fill="#BBA25A"/>
<path d="M124.279 37.2822H125.394V46.7705H131.24V47.7297H124.279V37.2822Z" fill="#BBA25A"/>
<path d="M138.318 39.8745V47.7296H137.307V46.2908C137.029 46.7769 136.646 47.1528 136.154 47.4185C135.668 47.6777 135.11 47.8073 134.482 47.8073C133.451 47.8073 132.641 47.5222 132.045 46.9518C131.455 46.375 131.163 45.5325 131.163 44.4242V39.8745H132.226V44.3205C132.226 45.1501 132.427 45.782 132.835 46.213C133.25 46.6375 133.833 46.8481 134.585 46.8481C135.415 46.8481 136.066 46.5986 136.543 46.0963C137.016 45.5973 137.255 44.8973 137.255 43.9965V39.8745H138.318Z" fill="#BBA25A"/>
<path d="M144.801 47.7296L142.312 44.4501L139.797 47.7296H138.605L141.716 43.6983L138.747 39.8745H139.953L142.312 42.9465L144.671 39.8745H145.825L142.869 43.6983L146.006 47.7296H144.801Z" fill="#BBA25A"/>
<path d="M152.838 44.1265H146.266C146.325 44.9495 146.636 45.6106 147.2 46.1097C147.77 46.6119 148.486 46.8615 149.351 46.8615C149.844 46.8615 150.291 46.7772 150.699 46.6022C151.105 46.4305 151.458 46.1745 151.762 45.8375L152.359 46.5244C152.002 46.9392 151.568 47.2601 151.049 47.4836C150.531 47.7008 149.954 47.8077 149.325 47.8077C148.522 47.8077 147.809 47.636 147.187 47.2892C146.565 46.9457 146.075 46.4694 145.722 45.8634C145.375 45.2606 145.203 44.5736 145.203 43.8024C145.203 43.0344 145.366 42.3474 145.696 41.7414C146.033 41.1387 146.49 40.6656 147.07 40.3285C147.657 39.985 148.314 39.8101 149.04 39.8101C149.766 39.8101 150.418 39.985 150.998 40.3285C151.574 40.6656 152.028 41.1387 152.359 41.7414C152.686 42.3377 152.851 43.0247 152.851 43.8024L152.838 44.1265ZM149.04 40.7304C148.288 40.7304 147.653 40.9734 147.135 41.4563C146.623 41.9326 146.334 42.558 146.266 43.3358H151.827C151.756 42.558 151.467 41.9326 150.959 41.4563C150.447 40.9734 149.808 40.7304 149.04 40.7304Z" fill="#BBA25A"/>
<path d="M163.319 39.8101C164.304 39.8101 165.076 40.0952 165.64 40.6656C166.2 41.2359 166.482 42.0752 166.482 43.1802V47.7299H165.419V43.2839C165.419 42.4641 165.218 41.8419 164.823 41.4174C164.434 40.9864 163.88 40.7693 163.164 40.7693C162.35 40.7693 161.705 41.0253 161.232 41.534C160.766 42.0363 160.532 42.7265 160.532 43.608V47.7299H159.482V43.2839C159.482 42.4641 159.282 41.8419 158.886 41.4174C158.497 40.9864 157.94 40.7693 157.214 40.7693C156.401 40.7693 155.756 41.0253 155.283 41.534C154.816 42.0363 154.583 42.7265 154.583 43.608V47.7299H153.52V39.8749H154.531V41.3137C154.816 40.8308 155.205 40.4582 155.698 40.1989C156.197 39.9397 156.773 39.8101 157.422 39.8101C158.076 39.8101 158.643 39.9526 159.12 40.2378C159.602 40.5165 159.965 40.9248 160.208 41.4692C160.5 40.9507 160.915 40.5457 161.453 40.2508C161.997 39.9591 162.619 39.8101 163.319 39.8101Z" fill="#BBA25A"/>
<path d="M171.914 39.8097C172.646 39.8097 173.314 39.9782 173.91 40.3153C174.513 40.6523 174.986 41.1254 175.323 41.7281C175.66 42.3341 175.829 43.0243 175.829 43.8021C175.829 44.5798 175.66 45.2733 175.323 45.876C174.986 46.482 174.513 46.9584 173.91 47.3019C173.314 47.6389 172.646 47.8074 171.914 47.8074C171.256 47.8074 170.663 47.6713 170.138 47.3926C169.62 47.1074 169.199 46.7024 168.881 46.1741V47.7296H167.87V36.647H168.933V41.3652C169.26 40.8564 169.678 40.4708 170.19 40.2116C170.709 39.9458 171.282 39.8097 171.914 39.8097ZM171.836 46.8611C172.387 46.8611 172.89 46.738 173.34 46.4852C173.787 46.226 174.137 45.8631 174.39 45.3964C174.639 44.9298 174.766 44.3983 174.766 43.8021C174.766 43.2058 174.639 42.6744 174.39 42.2077C174.137 41.7411 173.787 41.3846 173.34 41.1319C172.89 40.8726 172.387 40.743 171.836 40.743C171.282 40.743 170.78 40.8726 170.333 41.1319C169.892 41.3846 169.545 41.7411 169.296 42.2077C169.043 42.6744 168.92 43.2058 168.92 43.8021C168.92 44.3983 169.043 44.9298 169.296 45.3964C169.545 45.8631 169.892 46.226 170.333 46.4852C170.78 46.738 171.282 46.8611 171.836 46.8611Z" fill="#BBA25A"/>
<path d="M179.715 47.8077C178.954 47.8077 178.27 47.636 177.667 47.2892C177.061 46.9457 176.582 46.4694 176.229 45.8634C175.882 45.2606 175.71 44.5736 175.71 43.8024C175.71 43.0344 175.882 42.3474 176.229 41.7414C176.582 41.1387 177.061 40.6656 177.667 40.3285C178.27 39.985 178.954 39.8101 179.715 39.8101C180.467 39.8101 181.145 39.985 181.751 40.3285C182.363 40.6656 182.839 41.1387 183.176 41.7414C183.52 42.3474 183.695 43.0344 183.695 43.8024C183.695 44.5736 183.52 45.2606 183.176 45.8634C182.839 46.4694 182.363 46.9457 181.751 47.2892C181.145 47.636 180.467 47.8077 179.715 47.8077ZM179.715 46.8615C180.266 46.8615 180.765 46.7383 181.206 46.4856C181.653 46.2263 182 45.8634 182.243 45.3967C182.493 44.9301 182.619 44.3987 182.619 43.8024C182.619 43.2061 182.493 42.6747 182.243 42.2081C182 41.7414 181.653 41.385 181.206 41.1322C180.765 40.873 180.266 40.7433 179.715 40.7433C179.152 40.7433 178.653 40.873 178.212 41.1322C177.771 41.385 177.421 41.7414 177.162 42.2081C176.909 42.6747 176.786 43.2061 176.786 43.8024C176.786 44.3987 176.909 44.9301 177.162 45.3967C177.421 45.8634 177.771 46.2263 178.212 46.4856C178.653 46.7383 179.152 46.8615 179.715 46.8615Z" fill="#BBA25A"/>
<path d="M191.448 39.8745V47.7296H190.437V46.2908C190.158 46.7769 189.776 47.1528 189.283 47.4185C188.797 47.6777 188.24 47.8073 187.611 47.8073C186.58 47.8073 185.77 47.5222 185.174 46.9518C184.584 46.375 184.293 45.5325 184.293 44.4242V39.8745H185.355V44.3205C185.355 45.1501 185.556 45.782 185.965 46.213C186.38 46.6375 186.963 46.8481 187.715 46.8481C188.544 46.8481 189.196 46.5986 189.672 46.0963C190.145 45.5973 190.385 44.8973 190.385 43.9965V39.8745H191.448Z" fill="#BBA25A"/>
<path d="M193.938 41.4174C194.187 40.8924 194.56 40.4938 195.052 40.2248C195.545 39.9494 196.154 39.8101 196.88 39.8101V40.847L196.634 40.8341C195.804 40.8341 195.156 41.0901 194.689 41.5988C194.223 42.1011 193.989 42.8108 193.989 43.7246V47.7299H192.927V39.8749H193.938V41.4174Z" fill="#BBA25A"/>
<path d="M204.499 39.8749V46.7707C204.499 48.1091 204.168 49.0974 203.514 49.7391C202.866 50.3774 201.884 50.6983 200.571 50.6983C199.845 50.6983 199.152 50.5881 198.497 50.3742C197.849 50.1668 197.321 49.8719 196.916 49.4928L197.447 48.6891C197.827 49.0261 198.29 49.2886 198.834 49.4798C199.379 49.6678 199.949 49.765 200.545 49.765C201.537 49.765 202.269 49.5317 202.736 49.065C203.203 48.6049 203.436 47.8887 203.436 46.9133V45.9023C203.105 46.4046 202.674 46.7837 202.14 47.0429C201.611 47.3022 201.025 47.4318 200.377 47.4318C199.641 47.4318 198.97 47.273 198.368 46.9522C197.762 46.6249 197.285 46.1712 196.942 45.5912C196.605 45.0046 196.436 44.3436 196.436 43.608C196.436 42.8756 196.605 42.2178 196.942 41.6377C197.285 41.0609 197.758 40.6105 198.355 40.2897C198.957 39.9721 199.632 39.8101 200.377 39.8101C201.041 39.8101 201.641 39.9494 202.179 40.2248C202.723 40.4938 203.157 40.8794 203.488 41.3785V39.8749H204.499ZM200.481 46.4856C201.051 46.4856 201.563 46.3657 202.023 46.1226C202.48 45.8828 202.833 45.5458 203.086 45.1116C203.345 44.6709 203.475 44.1718 203.475 43.608C203.475 43.0571 203.345 42.5645 203.086 42.1303C202.833 41.6896 202.48 41.3493 202.023 41.1063C201.573 40.8665 201.057 40.7433 200.481 40.7433C199.917 40.7433 199.408 40.8665 198.951 41.1063C198.501 41.3396 198.147 41.6766 197.888 42.1173C197.635 42.558 197.512 43.0571 197.512 43.608C197.512 44.1718 197.635 44.6709 197.888 45.1116C198.147 45.5458 198.501 45.8828 198.951 46.1226C199.408 46.3657 199.917 46.4856 200.481 46.4856Z" fill="#BBA25A"/>
</svg>
